# xmcd
#
# Track frame offsets:
#	150
#	18071
#	34606
#	48474
#	65902
#	95812
#	114602
#	134144
#	160077
#	180670
#	210949
#	232501
#	253644
#	267117
#
# Disc length: 3853 seconds
# Revision: 0
# Processed by: cddbd v1.5.2PL0 Copyright (c) Steve Scherf et al.
# Submitted via: dBpowerAMP V12.0
#
DISCID=ba0f0b0e
DTITLE=Various Artist - Music City Blues, Vol. 1
DYEAR=1998
DGENRE=Blues
TTITLE0=Dean Hall and The Loose Eels - Waitin' At The Railroad
TTITLE1=Delicious Blues Stew - I Got Trouble
TTITLE2=Amy Watkins - You Can Look (But Don't Touch)
TTITLE3=Herbert Hunter and The Champions - You Can Make It If You Try
TTITLE4=The Bagdaddys - Let Me In
TTITLE5=The Blues Boyz - Blamin' It On The Man
TTITLE6=Mississippi Millie and The Mud Stompers - Handful Of Trouble
TTITLE7=Stacy Mitchhart and Blues-U-Can-Use - You Ain't Gotta Be Poor (To Have The Blues)
TTITLE8=Jim Gibson Band - Too Late
TTITLE9=Bobby Messano and NBO - Holden' Ground
TTITLE10=Joe Silva and New Blue - Kentucky Woman
TTITLE11=Michael Holloway - I'm In Love With That Girl
TTITLE12=Ty Houston and Black Cat Bones - Reflections
TTITLE13=Celinda Pink and The Cellar Dwellers - I've Earned The Right To Sing The Blues
EXTD=
EXTT0=
EXTT1=
EXTT2=
EXTT3=
EXTT4=
EXTT5=
EXTT6=
EXTT7=
EXTT8=
EXTT9=
EXTT10=
EXTT11=
EXTT12=
EXTT13=
PLAYORDER=
